<svg width="24" height="24" viewBox="0 0 24 24" fill="none" xmlns="http://www.w3.org/2000/svg">
<mask id="path-1-inside-1_3367_121" fill="white">
<path d="M12 24C18.6274 24 24 18.6274 24 12C24 5.37258 18.6274 0 12 0C5.37258 0 0 5.37258 0 12C0 18.6274 5.37258 24 12 24Z"/>
<path d="M16.8 12L12 7.2L7.2 12"/>
</mask>
<path d="M13 7.2C13 6.64772 12.5523 6.2 12 6.2C11.4477 6.2 11 6.64772 11 7.2H12H13ZM11 16.8C11 17.3523 11.4477 17.8 12 17.8C12.5523 17.8 13 17.3523 13 16.8H12H11ZM12 16.8H13V7.2H12H11V16.8H12ZM15.3858 13.4142C16.1668 14.1953 17.4332 14.1953 18.2142 13.4142C18.9953 12.6332 18.9953 11.3668 18.2142 10.5858L16.8 12L15.3858 13.4142ZM12 7.2L13.4142 5.78579C12.6332 5.00474 11.3668 5.00474 10.5858 5.78579L12 7.2ZM5.78579 10.5858C5.00474 11.3668 5.00474 12.6332 5.78579 13.4142C6.56684 14.1953 7.83317 14.1953 8.61421 13.4142L7.2 12L5.78579 10.5858ZM24 12H22C22 17.5228 17.5228 22 12 22V24V26C19.732 26 26 19.732 26 12H24ZM12 24V22C6.47715 22 2 17.5228 2 12H0H-2C-2 19.732 4.26801 26 12 26V24ZM0 12H2C2 6.47715 6.47715 2 12 2V0V-2C4.26801 -2 -2 4.26801 -2 12H0ZM12 0V2C17.5228 2 22 6.47715 22 12H24H26C26 4.26801 19.732 -2 12 -2V0ZM16.8 12L18.2142 10.5858L13.4142 5.78579L12 7.2L10.5858 8.61421L15.3858 13.4142L16.8 12ZM12 7.2L10.5858 5.78579L5.78579 10.5858L7.2 12L8.61421 13.4142L13.4142 8.61421L12 7.2Z" fill="#5D5D6C" mask="url(#path-1-inside-1_3367_121)"/>
</svg>
