<svg width="20" height="20" viewBox="0 0 20 20" fill="none" xmlns="http://www.w3.org/2000/svg">
<path d="M20 17.7778C20 18.3671 19.8084 18.9324 19.4675 19.3491C19.1265 19.7659 18.664 20 18.1818 20H1.81818C1.33597 20 0.873508 19.7659 0.532533 19.3491C0.191558 18.9324 0 18.3671 0 17.7778V5.55556C0 4.96619 0.191558 4.40095 0.532533 3.98421C0.873508 3.56746 1.33597 3.33333 1.81818 3.33333H5.45455L7.27273 0H12.7273L14.5455 3.33333H18.1818C18.664 3.33333 19.1265 3.56746 19.4675 3.98421C19.8084 4.40095 20 4.96619 20 5.55556V17.7778Z" stroke="#5D5D6C" stroke-width="2" stroke-linecap="round" stroke-linejoin="round"/>
<path d="M10 15.5556C12.0083 15.5556 13.6364 13.5657 13.6364 11.1111C13.6364 8.65651 12.0083 6.66667 10 6.66667C7.99169 6.66667 6.36364 8.65651 6.36364 11.1111C6.36364 13.5657 7.99169 15.5556 10 15.5556Z" stroke="#5D5D6C" stroke-width="2" stroke-linecap="round" stroke-linejoin="round"/>
</svg>
