<svg width="24" height="24" viewBox="0 0 24 24" fill="none" xmlns="http://www.w3.org/2000/svg">
<path d="M10.8 18H13.2V13.2H18V10.8H13.2V6H10.8V10.8H6V13.2H10.8V18ZM12 24C10.34 24 8.78 23.69 7.32 23.07C5.86 22.43 4.59 21.57 3.51 20.49C2.43 19.41 1.57 18.14 0.93 16.68C0.31 15.22 0 13.66 0 12C0 10.34 0.31 8.78 0.93 7.32C1.57 5.86 2.43 4.59 3.51 3.51C4.59 2.43 5.86 1.58 7.32 0.959999C8.78 0.32 10.34 0 12 0C13.66 0 15.22 0.32 16.68 0.959999C18.14 1.58 19.41 2.43 20.49 3.51C21.57 4.59 22.42 5.86 23.04 7.32C23.68 8.78 24 10.34 24 12C24 13.66 23.68 15.22 23.04 16.68C22.42 18.14 21.57 19.41 20.49 20.49C19.41 21.57 18.14 22.43 16.68 23.07C15.22 23.69 13.66 24 12 24ZM12 21.6C14.68 21.6 16.95 20.67 18.81 18.81C20.67 16.95 21.6 14.68 21.6 12C21.6 9.32 20.67 7.05 18.81 5.19C16.95 3.33 14.68 2.4 12 2.4C9.32 2.4 7.05 3.33 5.19 5.19C3.33 7.05 2.4 9.32 2.4 12C2.4 14.68 3.33 16.95 5.19 18.81C7.05 20.67 9.32 21.6 12 21.6Z" fill="#5D5D6C"/>
</svg>
